<svg width="100" height="24" viewBox="0 0 100 24" fill="none" xmlns="http://www.w3.org/2000/svg">
<path d="M6.17395 5.82141H0.88138C0.395547 5.82141 0 5.42587 0 4.94004V1.08347C0 0.597634 0.395547 0.202087 0.88138 0.202087H20.0266C20.5125 0.202087 20.908 0.597634 20.908 1.08347V4.94004C20.908 5.42587 20.5125 5.82141 20.0266 5.82141H14.7341C14.2482 5.82141 13.8527 6.21697 13.8527 6.7028V22.5332C13.8527 23.019 13.4572 23.4146 12.9713 23.4146H7.94531C7.45947 23.4146 7.06393 23.019 7.06393 22.5332V6.7028C7.06393 6.21697 6.66839 5.82141 6.18255 5.82141H6.17395Z" fill="#54BBF4"/>
<path d="M17.6663 11.1398H27.8774C28.3632 11.1398 28.7588 11.5353 28.7588 12.0212V15.6069C28.7588 16.0927 28.3632 16.4882 27.8774 16.4882H17.6663C17.1805 16.4882 16.7849 16.0927 16.7849 15.6069V12.0212C16.7849 11.5353 17.1805 11.1398 17.6663 11.1398Z" fill="#54BBF4"/>
<path d="M31.1836 22.5633V1.58648C31.1836 1.16944 31.4717 0.803989 31.8801 0.718001C34.1889 0.240766 36.6998 0 39.4127 0C43.94 0 47.3279 0.971668 49.5808 2.9107C51.8337 4.84974 52.9601 7.84213 52.9601 11.875C52.9601 14.6653 52.4227 16.9268 51.3521 18.668C50.2816 20.405 48.6521 21.6905 46.468 22.516C44.2839 23.3415 41.5065 23.7542 38.1358 23.7542C35.9216 23.7542 33.8622 23.6511 31.9575 23.4447C31.5104 23.3974 31.1793 23.0147 31.1793 22.5633H31.1836ZM39.9802 18.3026C42.0783 18.3026 43.6046 17.7996 44.5634 16.7978C45.5222 15.7917 46.0037 14.1451 46.0037 11.8449C46.0037 10.2627 45.7715 9.00296 45.2986 8.06569C44.8299 7.14992 44.1549 6.48351 43.2736 6.05787C42.3922 5.63223 41.2829 5.42156 39.9458 5.42156C39.5159 5.42156 39.1117 5.44305 38.7377 5.49035C38.2991 5.54194 37.9724 5.92459 37.9724 6.36743V17.3868C37.9724 17.8597 38.3507 18.251 38.8237 18.2682C39.3783 18.2897 39.7652 18.2983 39.9802 18.2983V18.3026Z" fill="#54BBF4"/>
<path d="M56.6404 0.202082H72.4708C72.9567 0.202082 73.3522 0.597629 73.3522 1.08346V4.66917C73.3522 5.155 72.9567 5.55054 72.4708 5.55054H63.3647C62.8789 5.55054 62.4833 5.9461 62.4833 6.43193V8.01411C62.4833 8.49994 62.8789 8.89548 63.3647 8.89548H70.8328C71.3186 8.89548 71.7141 9.29104 71.7141 9.77687V13.3626C71.7141 13.8484 71.3186 14.2439 70.8328 14.2439H63.3647C62.8789 14.2439 62.4833 14.6395 62.4833 15.1253V17.1718C62.4833 17.6577 62.8789 18.0532 63.3647 18.0532H72.6385C73.1244 18.0532 73.5199 18.4488 73.5199 18.9346V22.5246C73.5199 23.0104 73.1244 23.406 72.6385 23.406H56.6404C56.1546 23.406 55.759 23.0104 55.759 22.5246V1.07486C55.759 0.589028 56.1546 0.193481 56.6404 0.193481V0.202082Z" fill="#54BBF4"/>
<path d="M88.6152 6.40181C88.8215 6.34592 88.9935 6.41041 89.2042 6.4749C89.0494 6.74577 88.9032 6.97363 88.6367 7.08972C88.5808 7.11981 88.5335 7.19289 88.4561 7.1499C88.3701 7.09831 88.3701 7.01233 88.3787 6.93064C88.3916 6.82315 88.426 6.71137 88.426 6.60388C88.426 6.462 88.4862 6.4319 88.6152 6.40181Z" fill="#54BBF4"/>
<path d="M96.3111 5.08189C96.4057 5.22807 96.6078 5.36565 96.5218 5.53763C96.4444 5.69671 96.2165 5.66662 96.0359 5.66662C95.7737 5.66662 95.52 5.7741 95.1889 5.72251C95.1159 5.72251 94.9783 5.72251 94.8407 5.72251C94.7762 5.72251 94.7375 5.67952 94.716 5.62792C94.6902 5.57203 94.7203 5.52904 94.7719 5.49464C95.103 5.27107 95.3996 5.00021 95.7952 4.87553C95.9972 4.81534 96.1434 4.84542 96.2638 5.0131C96.2767 5.0346 96.2982 5.0561 96.3111 5.0776V5.08189Z" fill="#54BBF4"/>
<path d="M86.7922 6.64259C86.7363 6.73287 86.7492 6.86616 86.7879 6.96935C87.0501 7.60996 87.0287 8.29786 87.1017 8.96857C87.1404 9.35552 87.235 9.70377 87.3898 10.0434C87.4801 10.2369 87.5489 10.2498 87.6822 10.0735C87.8068 9.90154 87.9143 9.71236 88.0261 9.52749C88.0992 9.4114 88.168 9.29532 88.2497 9.15774C88.6237 9.36841 88.5764 9.85854 88.9032 10.0821C89.2558 10.0262 89.3374 9.71237 89.4363 9.44151C89.5008 9.26093 89.5911 9.08894 89.6771 8.92127C89.7717 8.73209 89.819 8.7321 89.9694 8.87828C90.1156 9.02876 90.2188 9.20934 90.3177 9.38992C90.3693 9.4845 90.4295 9.58338 90.5026 9.66077C90.666 9.83274 90.8121 9.83275 90.9497 9.63927C91.1217 9.40711 91.2636 9.14915 91.4398 8.91698C91.6032 8.69771 91.6505 8.7063 91.8397 8.90837C92.0246 9.10184 92.2137 9.29102 92.4029 9.4759C92.605 9.66507 92.6953 9.66077 92.8887 9.4759C93.0392 9.32972 93.1381 9.13194 93.3703 9.04595C93.5423 9.24373 93.7099 9.463 93.8131 9.73817C93.9206 10.0133 94.1571 10.1982 94.3978 10.3659C94.5784 10.4906 94.7246 10.3702 94.8192 10.224C94.9697 10.0133 95.176 9.89295 95.4641 9.72527C95.3351 10.1638 95.2276 10.525 95.1201 10.8861C94.8837 10.8775 94.6945 10.8044 94.5182 10.6625C94.3334 10.5207 94.1184 10.4175 93.9034 10.3186C93.7873 10.267 93.6927 10.2799 93.6497 10.4648C93.5723 10.7872 93.5896 11.1183 93.4993 11.4751C93.3015 11.3547 93.237 11.1699 93.1295 11.028C93.0177 10.8818 92.9017 10.7399 92.7598 10.6324C92.6136 10.525 92.5061 10.5808 92.4803 10.77C92.4287 11.1484 92.4158 11.5353 92.3298 11.9137C92.2524 12.2318 92.1664 12.2791 91.9472 12.0641C91.5645 11.6901 91.0615 11.574 90.5972 11.3848C90.4209 11.316 90.3435 11.3848 90.365 11.5955C90.3822 11.8621 90.3607 12.1372 90.451 12.3995C90.4768 12.4726 90.5155 12.5629 90.4166 12.6145C90.3392 12.6532 90.2575 12.6317 90.1844 12.5801C90.0296 12.4597 89.8577 12.3694 89.6986 12.2619C89.5008 12.1286 89.303 12.0942 89.0838 12.1329C89.0709 12.1587 89.0494 12.1888 89.0537 12.206C89.217 12.7907 89.3589 13.3841 89.561 13.9688C89.7201 14.4417 90.0511 14.8373 90.1414 15.336C90.1586 15.4263 90.2317 15.4908 90.365 15.4392C91.2937 15.0694 92.2868 15.0651 93.2542 14.8889C94.0281 14.747 94.8235 14.6954 95.5673 14.3901C95.7049 14.3342 95.8037 14.2482 95.8983 14.1451C96.0789 13.9516 96.2896 13.7925 96.5002 13.6291C96.6378 13.5173 96.7711 13.5173 96.9173 13.6119C97.8718 14.2138 98.8348 14.7986 99.785 15.4134C99.8753 15.4693 99.9441 15.5424 100 15.6241V16.6129C99.957 16.6817 99.9054 16.7462 99.8409 16.8021C99.7979 16.8408 99.7377 16.8623 99.7119 16.9053C99.4883 17.3481 99.1401 17.3223 98.723 17.2234C98.306 17.1246 97.8718 17.116 97.4418 17.073C97.2612 17.0558 97.1409 17.1159 97.0291 17.2793C96.3498 18.3499 96.453 18.0919 95.3824 18.1478C95.0041 18.165 94.6386 18.2467 94.2775 18.3198C94.0281 18.3671 93.9636 18.582 93.8948 18.7712C93.74 19.2055 93.5853 19.6311 93.3746 20.0395C93.2628 20.2545 93.2155 20.4867 93.1768 20.7232C93.1596 20.8392 93.1639 20.8392 93.3144 21.0671C93.6712 20.6501 94.0711 20.2932 94.501 19.9622C94.6343 19.859 94.7676 19.7601 94.9138 19.6827C95.0256 19.6225 95.1287 19.6483 95.1287 19.8203C95.133 19.9579 95.0943 20.0954 95.0814 20.2287C95.0428 20.7747 95.1545 21.3122 95.1717 21.8539C95.1717 21.9184 95.2061 21.9829 95.2319 22.0474C95.2577 22.1033 95.3007 22.1463 95.3566 22.1506C95.4125 22.1549 95.4555 22.1119 95.4727 22.0517C95.5071 21.9485 95.5415 21.841 95.5759 21.7378C95.7393 21.2305 95.8983 20.7318 96.0574 20.2287C96.0875 20.2201 96.1133 20.2158 96.1391 20.2072C96.367 20.7016 96.7195 21.1187 97.0463 21.5486C97.0807 21.5916 97.1108 21.6432 97.1409 21.6819C97.2225 21.7765 97.287 21.9399 97.4289 21.8797C97.5923 21.8066 97.6353 21.6518 97.5966 21.4583C97.5149 21.0628 97.4375 20.6673 97.4074 20.2674C97.3601 19.5666 97.3515 19.5623 98.0222 19.5881C98.6629 19.6053 99.2906 19.7257 99.914 19.8848C99.9441 19.8848 99.9742 19.902 100 19.9149V22.5246C100 22.9889 99.5227 23.4189 98.8477 23.4189H88.972C88.972 23.4189 88.929 23.406 88.9075 23.406C88.8645 23.4103 88.8172 23.4189 88.7742 23.4189H77.7161C76.7918 23.4189 76.2457 22.6235 76.7617 22.0302L85.8205 11.6686C86.0871 11.3633 86.0871 10.9721 85.8205 10.6754L77.7161 1.39731C77.2002 0.80399 77.7462 0 78.6706 0H85.6399C85.6399 0 85.6485 0 85.6528 0C85.6571 0 85.6614 0 85.6614 0H88.8946C88.8946 0 88.9204 0.00860066 88.9333 0.00860066C88.9505 0.00860066 88.9591 0 88.972 0H99.1401C99.613 0 100 0.386949 100 0.855585V5.66663C99.9011 5.66233 99.8108 5.63222 99.7334 5.58923C99.4282 5.41725 99.0885 5.34846 98.7617 5.24097C98.4522 5.14639 98.1985 5.00021 98.0394 4.68206C97.7858 4.16613 97.3429 3.79638 96.956 3.38794C96.8141 3.23746 96.6206 3.12137 96.4573 2.96659C96.2767 2.79461 96.1434 2.79461 95.9456 2.96659C95.3652 3.46102 94.6988 3.85657 94.2216 4.46709C93.9378 4.83684 93.5251 4.92282 93.108 4.88413C92.8157 4.86263 92.5319 4.88413 92.2438 4.89703C91.6462 4.92712 91.0486 4.95722 90.4553 5.04321C90.322 5.0647 90.2059 5.02601 90.0855 5.00882C89.5309 4.94432 88.9591 4.94432 88.426 4.75085C88.3572 4.72505 88.2927 4.69066 88.2239 4.68636C87.996 4.66916 87.8412 4.69926 87.6607 4.94002C87.2651 5.46455 87.1103 6.08796 86.7922 6.64259Z" fill="#54BBF4"/>
</svg>
